<svg version="1.1" viewBox="0.0 0.0 336.37795275590554 385.51181102362204" fill="none" stroke="none" stroke-linecap="square" stroke-miterlimit="10" xmlns:xlink="http://www.w3.org/1999/xlink" xmlns="http://www.w3.org/2000/svg"><clipPath id="p.0"><path d="m0 0l336.37796 0l0 385.5118l-336.37796 0l0 -385.5118z" clip-rule="nonzero"/></clipPath><g clip-path="url(#p.0)"><path fill="#000000" fill-opacity="0.0" d="m0 0l336.37796 0l0 385.5118l-336.37796 0z" fill-rule="evenodd"/><path fill="#4a86e8" d="m147.86392 214.16011l0 0c0 -5.5054626 4.514374 -9.968506 10.083145 -9.968506l0 0c2.6742096 0 5.2388916 1.0502472 7.1298523 2.9197083c1.8909607 1.8694458 2.9532776 4.4049835 2.9532776 7.0487976l0 0c0 5.5054474 -4.514374 9.968506 -10.08313 9.968506l0 0c-5.5687714 0 -10.083145 -4.4630585 -10.083145 -9.968506z" fill-rule="evenodd"/><path stroke="#000000" stroke-width="1.0" stroke-linejoin="round" stroke-linecap="butt" d="m147.86392 214.16011l0 0c0 -5.5054626 4.514374 -9.968506 10.083145 -9.968506l0 0c2.6742096 0 5.2388916 1.0502472 7.1298523 2.9197083c1.8909607 1.8694458 2.9532776 4.4049835 2.9532776 7.0487976l0 0c0 5.5054474 -4.514374 9.968506 -10.08313 9.968506l0 0c-5.5687714 0 -10.083145 -4.4630585 -10.083145 -9.968506z" fill-rule="evenodd"/><path fill="#cfe2f3" d="m170.99236 3.6325524l-166.57545 96.82992l-1.4286685 188.70944l168.00412 92.70596l161.56813 -94.70712l0.71572876 -184.46939z" fill-rule="evenodd"/><path stroke="#666666" stroke-width="3.0" stroke-linejoin="round" stroke-linecap="butt" d="m170.99236 3.6325524l-166.57545 96.82992l-1.4286685 188.70944l168.00412 92.70596l161.56813 -94.70712l0.71572876 -184.46939z" fill-rule="evenodd"/><path fill="#000000" fill-opacity="0.0" d="m144.86902 201.20998l271.11386 0l0 69.4803l-271.11386 0z" fill-rule="evenodd"/><path fill="#6fa8dc" d="m156.61902 224.48372l0 -4.171875l3.625 0l0 4.171875l-3.625 0zm0 25.40625l0 -21.4375l3.625 0l0 21.4375l-3.625 0zm9.150543 0l0 -21.4375l3.28125 0l0 3.046875q2.359375 -3.53125 6.8125 -3.53125q1.9375 0 3.5625 0.703125q1.625 0.703125 2.421875 1.828125q0.8125 1.125 1.140625 2.6875q0.203125 1.0 0.203125 3.53125l0 13.171875l-3.640625 0l0 -13.03125q0 -2.21875 -0.421875 -3.3125q-0.421875 -1.109375 -1.5 -1.765625q-1.078125 -0.65625 -2.53125 -0.65625q-2.3125 0 -4.0 1.46875q-1.6875 1.46875 -1.6875 5.59375l0 11.703125l-3.640625 0zm23.859741 0l0 -18.609375l-3.203125 0l0 -2.828125l3.203125 0l0 -2.28125q0 -2.15625 0.375 -3.203125q0.53125 -1.40625 1.84375 -2.28125q1.328125 -0.890625 3.71875 -0.890625q1.53125 0 3.390625 0.375l-0.546875 3.15625q-1.140625 -0.203125 -2.140625 -0.203125q-1.65625 0 -2.34375 0.71875q-0.6875 0.703125 -0.6875 2.640625l0 1.96875l4.171875 0l0 2.828125l-4.171875 0l0 18.609375l-3.609375 0z" fill-rule="nonzero"/><path fill="#dd7e6b" d="m214.90846 242.98372l3.75 0.46875q-0.875 3.296875 -3.28125 5.109375q-2.40625 1.8125 -6.140625 1.8125q-4.703125 0 -7.453125 -2.890625q-2.75 -2.90625 -2.75 -8.125q0 -5.40625 2.78125 -8.390625q2.78125 -3.0 7.21875 -3.0q4.3125 0 7.03125 2.9375q2.71875 2.921875 2.71875 8.234375q0 0.3125 -0.015625 0.96875l-15.984375 0q0.203125 3.53125 2.0 5.40625q1.796875 1.875 4.484375 1.875q2.0 0 3.40625 -1.046875q1.40625 -1.046875 2.234375 -3.359375zm-11.921875 -5.875l11.96875 0q-0.25 -2.703125 -1.375 -4.046875q-1.734375 -2.09375 -4.5 -2.09375q-2.5 0 -4.203125 1.671875q-1.703125 1.671875 -1.890625 4.46875zm20.203491 12.78125l0 -21.4375l3.265625 0l0 3.25q1.25 -2.28125 2.3125 -3.0q1.0625 -0.734375 2.328125 -0.734375q1.84375 0 3.734375 1.171875l-1.25 3.375q-1.328125 -0.78125 -2.671875 -0.78125q-1.1875 0 -2.140625 0.71875q-0.9375 0.703125 -1.34375 1.984375q-0.609375 1.9375 -0.609375 4.234375l0 11.21875l-3.625 0zm13.7625885 0l0 -21.4375l3.265625 0l0 3.25q1.25 -2.28125 2.3125 -3.0q1.0625 -0.734375 2.328125 -0.734375q1.84375 0 3.734375 1.171875l-1.25 3.375q-1.328125 -0.78125 -2.671875 -0.78125q-1.1875 0 -2.140625 0.71875q-0.9375 0.703125 -1.34375 1.984375q-0.609375 1.9375 -0.609375 4.234375l0 11.21875l-3.625 0z" fill-rule="nonzero"/><path fill="#000000" fill-opacity="0.0" d="m36.296047 214.5853l108.57297 -0.8503876" fill-rule="evenodd"/><path stroke="#999999" stroke-width="4.0" stroke-linejoin="round" stroke-linecap="butt" d="m36.296047 214.5853l108.57297 -0.8503876" fill-rule="evenodd"/><path fill="#000000" fill-opacity="0.0" d="m289.50024 250.17586l208.92651 0l0 42.01573l-208.92651 0z" fill-rule="evenodd"/><path fill="#000000" fill-opacity="0.0" d="m36.296047 134.82152l213.5141 0l0 96.944885l-213.5141 0z" fill-rule="evenodd"/><path fill="#6fa8dc" d="m60.014797 163.79277l-0.21875 3.9375q1.46875 -2.34375 3.5 -3.515625q2.0312462 -1.171875 4.624996 -1.171875q5.0625 0 7.96875 4.6875q1.59375 -2.34375 3.59375 -3.515625q2.0 -1.171875 4.4375 -1.171875q3.21875 0 5.328125 1.5625q2.109375 1.5625 2.703125 3.828125q0.59375 2.265625 0.59375 7.359375l0 29.46875l-12.25 0l0 -27.03125q0 -5.3125 -0.359375 -6.578125q-0.359375 -1.265625 -1.671875 -1.265625q-1.34375 0 -1.734375 1.25q-0.390625 1.25 -0.390625 6.59375l0 27.03125l-12.249996 0l0 -26.34375q0 -6.09375 -0.296875 -7.3125q-0.296875 -1.21875 -1.640625 -1.21875q-0.84375 0 -1.4375 0.640625q-0.59375 0.640625 -0.65625 1.5625q-0.0625 0.921875 -0.0625 3.921875l0 28.75l-12.25 0l0 -41.46875l12.46875 0zm49.874996 -9.125l0 50.59375l-13.0 0l0 -50.59375l13.0 0zm17.15625 9.125l-0.5 5.4375q2.7500076 -5.84375 7.9687576 -6.1875l0 14.59375q-3.46875 0 -5.09375 0.9375q-1.6250076 0.9375 -2.0000076 2.609375q-0.375 1.671875 -0.375 7.703125l0 16.375l-12.625 0l0 -41.46875l12.625 0z" fill-rule="nonzero"/><path fill="#000000" fill-opacity="0.0" d="m171.02466 214.98688l108.57297 -0.8503876" fill-rule="evenodd"/><path stroke="#999999" stroke-width="4.0" stroke-linejoin="round" stroke-linecap="butt" d="m171.02466 214.98688l108.57297 -0.8503876" fill-rule="evenodd"/><path fill="#cfe2f3" d="m146.36636 214.56168l0 0c0 -6.322998 5.1847534 -11.448822 11.580475 -11.448822l0 0c3.0713348 0 6.016876 1.2062225 8.188644 3.3532867c2.171753 2.1470642 3.3918457 5.059128 3.3918457 8.095535l0 0c0 6.3230133 -5.1847687 11.448822 -11.58049 11.448822l0 0c-6.3957214 0 -11.580475 -5.1258087 -11.580475 -11.448822z" fill-rule="evenodd"/><path stroke="#666666" stroke-width="3.0" stroke-linejoin="round" stroke-linecap="butt" d="m146.36636 214.56168l0 0c0 -6.322998 5.1847534 -11.448822 11.580475 -11.448822l0 0c3.0713348 0 6.016876 1.2062225 8.188644 3.3532867c2.171753 2.1470642 3.3918457 5.059128 3.3918457 8.095535l0 0c0 6.3230133 -5.1847687 11.448822 -11.58049 11.448822l0 0c-6.3957214 0 -11.580475 -5.1258087 -11.580475 -11.448822z" fill-rule="evenodd"/><path fill="#000000" fill-opacity="0.0" d="m167.67955 69.19948l240.21132 0l0 180.97638l-240.21132 0z" fill-rule="evenodd"/><path fill="#ffffff" d="m204.00768 206.87135q-9.46875 0 -18.0 -4.671875q-8.53125 -4.671875 -8.53125 -18.0q0 -8.671875 4.203125 -13.859375q4.203125 -5.203125 11.9375 -5.203125q9.0625 0 10.390625 6.796875q-6.796875 0.40625 -9.265625 4.671875q-2.46875 4.265625 -2.46875 9.734375q0 5.734375 3.328125 8.9375q3.34375 3.1875 8.140625 3.1875q4.265625 0 8.203125 -2.53125q3.9375 -2.53125 6.46875 -7.734375q2.53125 -5.203125 2.53125 -12.53125q0 -8.140625 -4.46875 -15.140625q-4.46875 -7.0 -13.265625 -10.0625q7.0625 -2.0 12.265625 -6.328125q5.203125 -4.328125 7.859375 -9.59375q2.671875 -5.28125 2.671875 -10.078125q0 -4.921875 -2.609375 -7.921875q-2.59375 -3.0 -7.515625 -3.0q-4.796875 0 -7.671875 2.859375q-2.859375 2.859375 -2.859375 7.53125q0 3.203125 1.265625 6.0q1.265625 2.796875 3.796875 3.46875q-4.9375 4.53125 -10.140625 4.53125q-4.125 0 -6.859375 -3.0q-2.734375 -3.0 -2.734375 -8.328125q0 -6.0 3.65625 -10.59375q3.671875 -4.609375 9.9375 -7.140625q6.265625 -2.53125 14.0 -2.53125q7.875 0 13.46875 2.671875q5.609375 2.65625 8.46875 7.0625q2.859375 4.390625 2.859375 9.734375q0 6.921875 -4.671875 13.59375q-4.65625 6.671875 -13.59375 11.203125q8.40625 2.796875 12.609375 8.59375q4.203125 5.796875 4.203125 13.40625q0 8.265625 -4.734375 16.203125q-4.734375 7.921875 -13.34375 13.0q-8.59375 5.0625 -19.53125 5.0625z" fill-rule="nonzero"/></g></svg>